<?xml version="1.0" encoding="UTF-8" standalone="no"?>
<svg
   width="45"
   height="380"
   version="1.1"
   id="svg12"
   sodipodi:docname="DaisyMaster2.svg"
   inkscape:version="1.3.2 (091e20e, 2023-11-25, custom)"
   xmlns:inkscape="http://www.inkscape.org/namespaces/inkscape"
   xmlns:sodipodi="http://sodipodi.sourceforge.net/DTD/sodipodi-0.dtd"
   xmlns="http://www.w3.org/2000/svg"
   xmlns:svg="http://www.w3.org/2000/svg">
  <defs
     id="defs12" />
  <sodipodi:namedview
     id="namedview12"
     pagecolor="#ffffff"
     bordercolor="#999999"
     borderopacity="1"
     inkscape:showpageshadow="2"
     inkscape:pageopacity="0"
     inkscape:pagecheckerboard="0"
     inkscape:deskcolor="#d1d1d1"
     inkscape:zoom="3.0256727"
     inkscape:cx="-28.258179"
     inkscape:cy="45.774945"
     inkscape:window-width="1920"
     inkscape:window-height="1009"
     inkscape:window-x="1854"
     inkscape:window-y="-8"
     inkscape:window-maximized="1"
     inkscape:current-layer="svg12" />
  <path
     fill="#ababab"
     d="M0 0h45v380H0Z"
     id="path1" />
  <path
     fill="#e6e6e6"
     d="M.3.3h44.4v379.4H0Z"
     id="path2" />
  <path
     fill="#c91847"
     d="M.3 16h44.4v16H0Z"
     id="path3" />
  <path
     d="M39.5 360a7 7 0 0 1-7 7 7 7 0 0 1-7-7 7 7 0 0 1 7-7 7 7 0 0 1 7 7z"
     style="fill:#556746"
     id="path4" />
  <path
     d="M39.5 362a5 5 0 0 1-5 5 5 5 0 0 1-5-5 5 5 0 0 1 5-5 5 5 0 0 1 5 5z"
     style="fill:#e6e6e6"
     id="path5" />
  <path
     d="M39.5 364a3 3 0 0 1-3 3 3 3 0 0 1-3-3 3 3 0 0 1 3-3 3 3 0 0 1 3 3z"
     style="fill:#556746"
     id="path6" />
  <path
     d="M22.5 80v16"
     style="fill:none;stroke:#000;stroke-width:.7"
     id="path7" />
  <path
     d="M12 277h20.5c2.216 0 4 1.784 4 4v58c0 2.216-1.784 4-4 4H12c-2.216 0-4-1.784-4-4v-58c0-2.216 1.784-4 4-4z"
     id="path8" />
  <path
     d="M0 346h14.25c2.216 0 4 1.784 4 4v12c0 2.216-1.784 4-4 4H0c-2.216 0-4-1.784-4-4v-12c0-2.216 1.784-4 4-4z"
     style="fill:#1994b3"
     id="path9" />
  <g
     aria-label="MASTERCV"
     style="font-family:&quot;Envy Code R&quot;;-inkscape-font-specification:&quot;Envy Code R&quot;;letter-spacing:0;word-spacing:0;stroke-width:1px"
     id="g11">
    <path
       d="m13.086 37.68-.926 1.617-.926-1.617V42h-.617v-5.555h.617l.926 1.852.926-1.852h.617V42h-.617zM14.914 37.988q0-.32.121-.601.121-.282.328-.489.211-.21.492-.332.282-.12.602-.12t.602.12q.28.121.488.332.21.207.332.489.121.281.121.601V42h-.617v-2.469H15.53V42h-.617zm2.469.926v-.926q0-.191-.074-.36-.07-.167-.2-.292-.125-.129-.293-.2-.168-.074-.359-.074-.191 0-.36.075-.167.07-.296.199-.125.125-.2.293-.07.168-.07.36v.925zM19.828 37.988q0 .192.07.36.075.168.2.297.129.125.297.199.167.07.359.07.32 0 .601.121.282.121.489.332.21.207.332.488.12.282.12.602t-.12.602q-.121.28-.332.492-.207.207-.489.328-.28.121-.601.121H19.21v-.617h1.543q.191 0 .36-.07.167-.075.292-.2.13-.129.2-.297.074-.168.074-.359 0-.191-.075-.36-.07-.167-.199-.292-.125-.13-.293-.2-.168-.074-.36-.074-.32 0-.6-.12-.282-.122-.493-.329-.207-.21-.328-.492-.121-.281-.121-.602 0-.32.121-.601.121-.282.328-.489.211-.21.492-.332.282-.12.602-.12h1.543v.617h-1.543q-.192 0-.36.074-.167.07-.296.199-.125.125-.2.293-.07.168-.07.36zM24.742 37.063h-1.234v-.618h3.086v.617h-1.235V42h-.617zM27.805 36.445h3.086v.617h-2.47v1.852h1.852v.617h-1.851v1.852h2.469V42h-3.086zM33.996 39.492q1.219 2.496 1.219 2.508h-.707q-1.203-2.457-1.203-2.469h-.586V42h-.617v-5.555h1.543q.32 0 .601.121.281.121.488.332.211.207.332.489.121.281.121.601 0 .274-.09.52t-.25.445q-.16.2-.378.34-.219.14-.473.2zm-.351-.578q.19 0 .359-.07.168-.074.293-.2.129-.128.2-.296.073-.168.073-.36 0-.191-.074-.36-.07-.167-.2-.292-.124-.129-.292-.2-.168-.074-.36-.074h-.925v1.852zM20.172 124.063q-.2 0-.371.074-.172.07-.297.199-.125.125-.2.293-.07.168-.07.36v2.468q0 .191.07.36.075.167.2.296.125.125.297.2.172.07.37.07.165 0 .31-.043.144-.047.261-.13.121-.081.207-.194.09-.114.137-.25h.617q-.055.265-.191.492-.137.226-.34.39-.2.164-.453.258-.254.094-.547.094-.328 0-.613-.121-.282-.121-.493-.328-.21-.211-.332-.492-.117-.282-.117-.602v-2.469q0-.32.117-.601.121-.282.332-.489.211-.21.493-.332.285-.12.613-.12.293 0 .547.093.258.094.457.262.199.164.336.39.136.227.191.489h-.617q-.047-.133-.137-.246-.086-.114-.203-.196-.117-.082-.266-.129-.144-.047-.308-.047zM23.531 123.445l.926 4.063.926-4.063H26L24.766 129h-.618l-1.234-5.555z"
       style="font-size:8px"
       id="path11" />
  </g>
  <g
     aria-label="OUT"
     style="font-family:&quot;Envy Code R&quot;;-inkscape-font-specification:&quot;Envy Code R&quot;;letter-spacing:0;word-spacing:0;fill:#fff;stroke-width:1px"
     id="g12">
    <path
       d="M15.617 282.988q0-.32.121-.601.121-.282.328-.489.211-.21.493-.332.28-.12.601-.12.32 0 .602.12.281.122.488.332.21.207.332.489.121.281.121.601v2.469q0 .32-.121.602-.121.28-.332.492-.207.207-.488.328-.282.121-.602.121t-.601-.121q-.282-.121-.493-.328-.207-.211-.328-.492-.12-.282-.12-.602zm1.543-.926q-.191 0-.36.075-.167.07-.296.199-.125.125-.2.293-.07.168-.07.36v2.468q0 .191.07.36.075.167.2.296.129.125.297.2.168.07.36.07.19 0 .359-.07.168-.075.293-.2.128-.129.199-.297.074-.168.074-.359v-2.469q0-.191-.074-.36-.07-.167-.2-.292-.125-.129-.292-.2-.168-.074-.36-.074zM19.914 281.445h.617v4.012q0 .191.07.36.075.167.2.296.129.125.297.2.168.07.359.07.191 0 .36-.07.167-.075.292-.2.13-.129.2-.297.074-.168.074-.359v-4.012H23v4.012q0 .32-.121.602-.121.28-.332.492-.207.207-.488.328-.282.121-.602.121t-.602-.121q-.28-.121-.492-.328-.207-.211-.328-.492-.12-.282-.12-.602v-1.543zM25.445 282.063h-1.234v-.618h3.086v.618h-1.235V287h-.617z"
       style="font-size:8px"
       id="path12" />
  </g>
  <g
     id="g2"
     transform="matrix(0.91406079,0,0,0.91406079,1.403383,2.3918933)"
     style="stroke:#fdfdfd;stroke-opacity:1">
    <rect
       style="fill:none;fill-opacity:1;stroke:#fdfdfd;stroke-width:1.6394;stroke-linecap:round;stroke-linejoin:round;stroke-dasharray:none;stroke-opacity:1"
       id="rect1-9"
       width="14.732833"
       height="12.39714"
       x="15.549583"
       y="17.441113"
       ry="2.994478" />
    <circle
       style="fill:none;fill-opacity:1;stroke:#fdfdfd;stroke-width:1.01643;stroke-linecap:round;stroke-linejoin:round;stroke-dasharray:none;stroke-opacity:1"
       id="path4-0"
       cx="22.916"
       cy="23.639683"
       r="3.1286011" />
    <path
       style="fill:none;fill-opacity:1;stroke:#fdfdfd;stroke-width:0.65576;stroke-linecap:round;stroke-linejoin:round;stroke-dasharray:none;stroke-opacity:1"
       d="M 24.865583,21.718756 23.318402,23.31029"
       id="path5-3"
       sodipodi:nodetypes="cc" />
  </g>
</svg>
