<?xml version="1.0" encoding="UTF-8" standalone="no"?>
<svg
   width="15"
   height="380"
   version="1.1"
   id="svg7"
   sodipodi:docname="DaisyBlank1.svg"
   inkscape:version="1.3.2 (091e20e, 2023-11-25, custom)"
   xmlns:inkscape="http://www.inkscape.org/namespaces/inkscape"
   xmlns:sodipodi="http://sodipodi.sourceforge.net/DTD/sodipodi-0.dtd"
   xmlns="http://www.w3.org/2000/svg"
   xmlns:svg="http://www.w3.org/2000/svg">
  <defs
     id="defs7" />
  <sodipodi:namedview
     id="namedview7"
     pagecolor="#ffffff"
     bordercolor="#999999"
     borderopacity="1"
     inkscape:showpageshadow="2"
     inkscape:pageopacity="0"
     inkscape:pagecheckerboard="0"
     inkscape:deskcolor="#d1d1d1"
     inkscape:zoom="1.5128364"
     inkscape:cx="-48.584237"
     inkscape:cy="148.39675"
     inkscape:window-width="1920"
     inkscape:window-height="1009"
     inkscape:window-x="1854"
     inkscape:window-y="-8"
     inkscape:window-maximized="1"
     inkscape:current-layer="svg7" />
  <path
     fill="#ababab"
     d="M0 0h15v380H0Z"
     id="path1" />
  <path
     fill="#e6e6e6"
     d="M.3.3h14.4v379.4H0Z"
     id="path2" />
  <path
     fill="#c91847"
     d="M.3 16h14.4v16H0Z"
     id="path3" />
  <path
     d="M0 346h15v20H0Z"
     style="fill:#1994b3"
     id="path4" />
  <g
     aria-label="DS"
     style="font-family:&quot;Envy Code R&quot;;-inkscape-font-specification:&quot;Envy Code R&quot;;letter-spacing:0;word-spacing:0;fill:#fff;stroke-width:1px"
     id="g7">
    <path
       d="M3.617 350.445H5.16q.32 0 .602.121.281.122.488.332.21.207.332.489.121.281.121.601v2.469q0 .32-.121.602-.121.28-.332.492-.207.207-.488.328-.282.121-.602.121H3.617Zm1.543 4.938q.192 0 .36-.07.168-.075.293-.2.128-.129.199-.297.074-.168.074-.359v-2.469q0-.191-.074-.36-.07-.167-.2-.292-.125-.129-.292-.2-.168-.073-.36-.073h-.926v4.32zM8.531 351.988q0 .192.07.36.075.168.2.297.129.125.297.199.168.07.359.07.32 0 .602.121.28.121.488.332.21.207.332.488.121.282.121.602t-.121.602q-.121.28-.332.492-.207.207-.488.328-.282.121-.602.121H7.914v-.617h1.543q.191 0 .36-.07.167-.075.292-.2.13-.129.2-.297.074-.168.074-.359 0-.191-.074-.36-.07-.167-.2-.292-.125-.13-.293-.2-.168-.074-.359-.074-.32 0-.602-.12-.28-.122-.492-.329-.207-.21-.328-.492-.12-.281-.12-.602 0-.32.12-.601.121-.282.328-.489.211-.21.492-.332.282-.12.602-.12H11v.617H9.457q-.191 0-.36.074-.167.07-.296.199-.125.125-.2.293-.07.168-.07.36z"
       style="font-size:8px"
       id="path7" />
  </g>
  <path
     d="M 7.5,54.581801 V 325.4182"
     style="fill:none;stroke:#000000;stroke-width:0.7;stroke-dasharray:none"
     id="path7-0" />
</svg>
