<?xml version="1.0" encoding="UTF-8" standalone="no"?>
<svg
   width="30"
   height="380"
   version="1.1"
   id="svg10"
   sodipodi:docname="DaisyChannel2.svg"
   inkscape:version="1.3.2 (091e20e, 2023-11-25, custom)"
   xmlns:inkscape="http://www.inkscape.org/namespaces/inkscape"
   xmlns:sodipodi="http://sodipodi.sourceforge.net/DTD/sodipodi-0.dtd"
   xmlns="http://www.w3.org/2000/svg"
   xmlns:svg="http://www.w3.org/2000/svg">
  <defs
     id="defs10">
    <inkscape:path-effect
       effect="fillet_chamfer"
       id="path-effect3"
       is_visible="true"
       lpeversion="1"
       nodesatellites_param="F,0,0,1,0,0,0,1 @ F,0,0,1,0,7.1637909,0,1 @ F,0,0,1,0,0,0,1"
       radius="0"
       unit="px"
       method="auto"
       mode="F"
       chamfer_steps="1"
       flexible="false"
       use_knot_distance="true"
       apply_no_radius="true"
       apply_with_radius="true"
       only_selected="false"
       hide_knots="false" />
  </defs>
  <sodipodi:namedview
     id="namedview10"
     pagecolor="#ffffff"
     bordercolor="#999999"
     borderopacity="1"
     inkscape:showpageshadow="2"
     inkscape:pageopacity="0"
     inkscape:pagecheckerboard="0"
     inkscape:deskcolor="#d1d1d1"
     inkscape:zoom="2.1394737"
     inkscape:cx="-98.856089"
     inkscape:cy="185.79336"
     inkscape:window-width="1920"
     inkscape:window-height="1009"
     inkscape:window-x="1854"
     inkscape:window-y="-8"
     inkscape:window-maximized="1"
     inkscape:current-layer="svg10" />
  <path
     d="M0 0h30v380H0z"
     fill="#ababab"
     id="path1" />
  <path
     d="M.3.3h29.4v379.4H0z"
     fill="#e6e6e6"
     id="path2" />
  <path
     d="M.3 16h29.4v16H0z"
     fill="#c91847"
     id="path3" />
  <path
     d="M14.75 126v16"
     fill="none"
     stroke="#000"
     stroke-width=".7"
     id="path4" />
  <path
     d="M4.75 277h20.5c2.216 0 4 1.784 4 4v58c0 2.216-1.784 4-4 4H4.75c-2.216 0-4-1.784-4-4v-58c0-2.216 1.784-4 4-4z"
     id="path5" />
  <path
     d="M0 346h29.25v20H0z"
     fill="#1994b3"
     id="path6" />
  <g
     font-family="Envy Code R"
     letter-spacing="0"
     word-spacing="0"
     id="g10">
    <g
       aria-label="DC2"
       style="-inkscape-font-specification:'Envy Code R'"
       font-weight="700"
       fill="#fff"
       font-size="12.5"
       id="g7" />
    <g
       aria-label="INCVPAN"
       style="-inkscape-font-specification:'Envy Code R'"
       font-size="8"
       id="g8">
      <path
         d="M10.617 41.383h1.235v-4.32h-1.235v-.618h3.086v.617H12.47v4.32h1.234V42h-3.086zM14.914 42v-5.555h.617l1.852 4.11v-4.11H18V42h-.617l-1.852-4.11V42zM12.172 102.063q-.2 0-.371.074-.172.07-.297.199-.125.125-.2.293-.07.168-.07.36v2.468q0 .191.07.36.075.167.2.296.125.125.297.2.172.07.37.07.165 0 .31-.043.144-.047.261-.13.121-.081.207-.194.09-.114.137-.25h.617q-.055.265-.191.492-.137.226-.34.39-.2.164-.453.258-.254.094-.547.094-.328 0-.613-.121-.282-.121-.493-.328-.21-.211-.332-.492-.117-.282-.117-.602v-2.469q0-.32.117-.601.121-.282.332-.489.211-.21.493-.332.285-.12.613-.12.293 0 .547.093.258.094.457.262.199.164.336.39.136.227.191.489h-.617q-.047-.133-.137-.246-.086-.114-.203-.196-.117-.082-.266-.129-.144-.047-.308-.047zM15.531 101.445l.926 4.063.926-4.063H18L16.766 107h-.618l-1.234-5.555zM9.734 228h-.617v-5.555h1.543q.32 0 .602.121.281.122.488.332.21.207.332.489.121.281.121.601 0 .32-.121.602-.121.281-.332.492-.207.207-.488.328-.282.121-.602.121h-.926zm.926-3.086q.192 0 .36-.07.168-.074.293-.2.128-.128.199-.296.074-.168.074-.36 0-.191-.074-.36-.07-.167-.2-.292-.124-.129-.292-.2-.168-.073-.36-.073h-.926v1.851zM13.414 223.988q0-.32.121-.601.121-.282.328-.489.211-.21.492-.332.282-.12.602-.12t.602.12q.28.121.488.332.21.207.332.489.121.281.121.601V228h-.617v-2.469H14.03V228h-.617zm2.469.926v-.926q0-.191-.074-.36-.07-.167-.2-.292-.125-.129-.293-.2-.168-.073-.359-.073-.191 0-.36.074-.167.07-.296.199-.125.125-.2.293-.07.168-.07.36v.925zM17.71 228v-5.555h.618l1.852 4.11v-4.11h.617V228h-.617l-1.852-4.11V228z"
         id="path8" />
    </g>
    <g
       aria-label="OUTDAISY"
       style="-inkscape-font-specification:'Envy Code R'"
       fill="#fff"
       font-size="8"
       id="g9">
      <path
         d="M9.617 282.988q0-.32.121-.601.121-.282.328-.489.211-.21.493-.332.28-.12.601-.12.32 0 .602.12.281.122.488.332.21.207.332.489.121.281.121.601v2.469q0 .32-.121.602-.121.28-.332.492-.207.207-.488.328-.282.121-.602.121t-.601-.121q-.282-.121-.493-.328-.207-.211-.328-.492-.12-.282-.12-.602zm1.543-.926q-.191 0-.36.075-.167.07-.296.199-.125.125-.2.293-.07.168-.07.36v2.468q0 .191.07.36.075.167.2.296.129.125.297.2.168.07.36.07.19 0 .359-.07.168-.075.293-.2.128-.129.199-.297.074-.168.074-.359v-2.469q0-.191-.074-.36-.07-.167-.2-.292-.124-.129-.292-.2-.168-.074-.36-.074zM13.914 281.445h.617v4.012q0 .191.07.36.075.167.2.296.129.125.297.2.168.07.359.07.191 0 .36-.07.167-.075.292-.2.13-.129.2-.297.074-.168.074-.359v-4.012H17v4.012q0 .32-.121.602-.121.28-.332.492-.207.207-.488.328-.282.121-.602.121t-.602-.121q-.28-.121-.492-.328-.207-.211-.328-.492-.12-.282-.12-.602v-1.543zM19.445 282.063h-1.234v-.618h3.086v.618h-1.235V287h-.617zM4.617 350.445H6.16q.32 0 .602.121.281.122.488.332.21.207.332.489.121.281.121.601v2.469q0 .32-.121.602-.121.28-.332.492-.207.207-.488.328-.282.121-.602.121H4.617zm1.543 4.938q.192 0 .36-.07.168-.075.293-.2.128-.129.199-.297.074-.168.074-.359v-2.469q0-.191-.074-.36-.07-.167-.2-.292-.125-.129-.292-.2-.168-.073-.36-.073h-.926v4.32zM8.914 351.988q0-.32.121-.601.121-.282.328-.489.211-.21.492-.332.282-.12.602-.12t.602.12q.28.122.488.332.21.207.332.489.121.281.121.601V356h-.617v-2.469H9.53V356h-.617zm2.469.926v-.926q0-.191-.074-.36-.07-.167-.2-.292-.125-.129-.293-.2-.168-.073-.359-.073-.191 0-.36.074-.167.07-.296.199-.125.125-.2.293-.07.168-.07.36v.925zM13.21 355.383h1.235v-4.32h-1.234v-.618h3.086v.618h-1.235v4.32h1.235V356H13.21zM18.125 351.988q0 .192.07.36.075.168.2.297.128.125.296.199.168.07.36.07.32 0 .601.121.282.121.489.332.21.207.332.488.12.282.12.602t-.12.602q-.121.28-.332.492-.207.207-.489.328-.28.121-.601.121h-1.543v-.617h1.543q.191 0 .36-.07.167-.075.292-.2.129-.129.2-.297.074-.168.074-.359 0-.191-.075-.36-.07-.167-.199-.292-.125-.13-.293-.2-.168-.074-.36-.074-.32 0-.6-.12-.282-.122-.493-.329-.207-.21-.328-.492-.121-.281-.121-.602 0-.32.12-.601.122-.282.329-.489.211-.21.492-.332.281-.12.602-.12h1.543v.617H19.05q-.192 0-.36.074-.168.07-.296.199-.125.125-.2.293-.07.168-.07.36zM23.04 354.156l-1.235-3.71h.617l.926 2.777.925-2.778h.618l-1.235 3.703V356h-.617z"
         id="path9" />
    </g>
  </g>
  <g
     id="g3"
     transform="translate(-0.12652626,0.46175671)"
     style="stroke:#ffffff;stroke-opacity:1">
    <path
       style="fill:none;fill-opacity:1;stroke:#ffffff;stroke-width:10;stroke-linecap:round;stroke-linejoin:round;stroke-dasharray:none;stroke-opacity:1"
       d="m 40.166389,67.104295 2.999805,-12.465898 a 5.6620399,5.6620399 155.20869 0 1 8.065445,-3.725275 L 64.295203,57.5369"
       id="path2-5"
       sodipodi:nodetypes="ccc"
       inkscape:path-effect="#path-effect3"
       inkscape:original-d="M 40.166389,67.104295 44.842249,47.673432 64.295203,57.5369"
       transform="matrix(0.02809383,0.14252879,-0.14691345,0.02895809,23.556622,13.930613)" />
    <g
       id="g2"
       style="stroke:#ffffff;stroke-opacity:1">
      <rect
         style="fill:none;fill-opacity:1;stroke:#ffffff;stroke-width:1.47614;stroke-linecap:round;stroke-linejoin:round;stroke-dasharray:none;stroke-opacity:1"
         id="rect1"
         width="13.265635"
         height="11.162546"
         x="8.343709"
         y="17.95697"
         ry="2.6962671" />
      <path
         style="fill:none;fill-opacity:1;stroke:#ffffff;stroke-width:1.47489;stroke-linecap:round;stroke-linejoin:round;stroke-dasharray:none;stroke-opacity:1"
         d="m 17.097695,22.336137 -4.49539,3.327726"
         id="path3-1"
         sodipodi:nodetypes="cc" />
    </g>
  </g>
</svg>
