<?xml version="1.0" encoding="UTF-8" standalone="no"?>
<svg
   width="30"
   height="380"
   version="1.1"
   id="svg7"
   sodipodi:docname="DaisyChannelSends2-dark.svg"
   inkscape:version="1.3.2 (091e20e, 2023-11-25, custom)"
   xmlns:inkscape="http://www.inkscape.org/namespaces/inkscape"
   xmlns:sodipodi="http://sodipodi.sourceforge.net/DTD/sodipodi-0.dtd"
   xmlns="http://www.w3.org/2000/svg"
   xmlns:svg="http://www.w3.org/2000/svg">
  <defs
     id="defs7" />
  <sodipodi:namedview
     id="namedview7"
     pagecolor="#ffffff"
     bordercolor="#999999"
     borderopacity="1"
     inkscape:showpageshadow="2"
     inkscape:pageopacity="0"
     inkscape:pagecheckerboard="0"
     inkscape:deskcolor="#d1d1d1"
     inkscape:zoom="8.5578948"
     inkscape:cx="-6.2515375"
     inkscape:cy="32.075646"
     inkscape:window-width="1920"
     inkscape:window-height="1009"
     inkscape:window-x="1854"
     inkscape:window-y="-8"
     inkscape:window-maximized="1"
     inkscape:current-layer="svg7" />
  <path
     fill="#ababab"
     d="M0 0h30v380H0Z"
     id="path1" />
  <path
     fill="#e6e6e6"
     d="M.3.3h29.4v379.4H0Z"
     id="path2"
     style="fill:#2b2b2c;fill-opacity:1"
     inkscape:label="path2" />
  <path
     fill="#c91847"
     d="M.3 16h29.4v16H0Z"
     id="path3"
     style="fill:#ededed;fill-opacity:1" />
  <path
     d="M4.75 277h20.5c2.216 0 4 1.784 4 4v58c0 2.216-1.784 4-4 4H4.75c-2.216 0-4-1.784-4-4v-58c0-2.216 1.784-4 4-4z"
     id="path4"
     style="fill:#ededed;fill-opacity:1" />
  <path
     d="M0 346h29.25v20H0Z"
     style="fill:#1994b3"
     id="path5" />
  <g
     aria-label="OUTDAISY"
     style="font-family:'Envy Code R';-inkscape-font-specification:'Envy Code R';letter-spacing:0;word-spacing:0;fill:#000000;stroke-width:1px;fill-opacity:1"
     id="g7">
    <path
       d="M9.617 282.988q0-.32.121-.601.121-.282.328-.489.211-.21.493-.332.28-.12.601-.12.32 0 .602.12.281.122.488.332.21.207.332.489.121.281.121.601v2.469q0 .32-.121.602-.121.28-.332.492-.207.207-.488.328-.282.121-.602.121t-.601-.121q-.282-.121-.493-.328-.207-.211-.328-.492-.12-.282-.12-.602zm1.543-.926q-.191 0-.36.075-.167.07-.296.199-.125.125-.2.293-.07.168-.07.36v2.468q0 .191.07.36.075.167.2.296.129.125.297.2.168.07.36.07.19 0 .359-.07.168-.075.293-.2.128-.129.199-.297.074-.168.074-.359v-2.469q0-.191-.074-.36-.07-.167-.2-.292-.124-.129-.292-.2-.168-.074-.36-.074zM13.914 281.445h.617v4.012q0 .191.07.36.075.167.2.296.129.125.297.2.168.07.359.07.191 0 .36-.07.167-.075.292-.2.13-.129.2-.297.074-.168.074-.359v-4.012H17v4.012q0 .32-.121.602-.121.28-.332.492-.207.207-.488.328-.282.121-.602.121t-.602-.121q-.28-.121-.492-.328-.207-.211-.328-.492-.12-.282-.12-.602v-1.543zM19.445 282.063h-1.234v-.618h3.086v.618h-1.235V287h-.617zM4.617 350.445H6.16q.32 0 .602.121.281.122.488.332.21.207.332.489.121.281.121.601v2.469q0 .32-.121.602-.121.28-.332.492-.207.207-.488.328-.282.121-.602.121H4.617Zm1.543 4.938q.192 0 .36-.07.168-.075.293-.2.128-.129.199-.297.074-.168.074-.359v-2.469q0-.191-.074-.36-.07-.167-.2-.292-.125-.129-.292-.2-.168-.073-.36-.073h-.926v4.32zM8.914 351.988q0-.32.121-.601.121-.282.328-.489.211-.21.492-.332.282-.12.602-.12t.602.12q.28.122.488.332.21.207.332.489.121.281.121.601V356h-.617v-2.469H9.53V356h-.617Zm2.469.926v-.926q0-.191-.074-.36-.07-.167-.2-.292-.125-.129-.293-.2-.168-.073-.359-.073-.191 0-.36.074-.167.07-.296.199-.125.125-.2.293-.07.168-.07.36v.925zM13.21 355.383h1.235v-4.32h-1.234v-.618h3.086v.618h-1.235v4.32h1.235V356H13.21zM18.125 351.988q0 .192.07.36.075.168.2.297.128.125.296.199.168.07.36.07.32 0 .601.121.282.121.489.332.21.207.332.488.12.282.12.602t-.12.602q-.121.28-.332.492-.207.207-.489.328-.28.121-.601.121h-1.543v-.617h1.543q.191 0 .36-.07.167-.075.292-.2.129-.129.2-.297.074-.168.074-.359 0-.191-.075-.36-.07-.167-.199-.292-.125-.13-.293-.2-.168-.074-.36-.074-.32 0-.6-.12-.282-.122-.493-.329-.207-.21-.328-.492-.121-.281-.121-.602 0-.32.12-.601.122-.282.329-.489.211-.21.492-.332.281-.12.602-.12h1.543v.617H19.05q-.192 0-.36.074-.168.07-.296.199-.125.125-.2.293-.07.168-.07.36zM23.04 354.156l-1.235-3.71h.617l.926 2.777.925-2.778h.618l-1.235 3.703V356h-.617z"
       style="font-size:8px;fill:#000000;fill-opacity:1"
       id="path7" />
  </g>
  <g
     id="g8"
     transform="translate(-7.5543298,-10.348016)">
    <rect
       style="fill:none;fill-opacity:1;stroke:#000000;stroke-width:1.48284;stroke-linecap:round;stroke-linejoin:round;stroke-dasharray:none;stroke-opacity:1"
       id="rect1-8"
       width="13.32582"
       height="11.213191"
       x="15.74142"
       y="28.741421"
       ry="2.7085001" />
    <path
       style="fill:#000000;fill-opacity:1;stroke:#000000;stroke-width:0.437841;stroke-linecap:round;stroke-linejoin:round;stroke-dasharray:none;stroke-opacity:1"
       d="m 20.695155,37.651877 4.725855,-6.607824 -2.025735,6.219079 z"
       id="path1-1"
       sodipodi:nodetypes="cccc" />
    <path
       style="fill:#000000;fill-opacity:1;stroke:#000000;stroke-width:0.437841;stroke-linecap:round;stroke-linejoin:round;stroke-dasharray:none;stroke-opacity:1"
       d="m 19.387748,36.484349 6.033262,-5.440296 -5.951226,2.71357 z"
       id="path1-7"
       sodipodi:nodetypes="cccc" />
  </g>
</svg>
