<?xml version="1.0" encoding="UTF-8" standalone="no"?>
<svg
   width="30"
   height="380"
   version="1.1"
   id="svg10"
   sodipodi:docname="DaisyBlank2-dark.svg"
   inkscape:version="1.3.2 (091e20e, 2023-11-25, custom)"
   xmlns:inkscape="http://www.inkscape.org/namespaces/inkscape"
   xmlns:sodipodi="http://sodipodi.sourceforge.net/DTD/sodipodi-0.dtd"
   xmlns="http://www.w3.org/2000/svg"
   xmlns:svg="http://www.w3.org/2000/svg">
  <defs
     id="defs10" />
  <sodipodi:namedview
     id="namedview10"
     pagecolor="#ffffff"
     bordercolor="#999999"
     borderopacity="1"
     inkscape:showpageshadow="2"
     inkscape:pageopacity="0"
     inkscape:pagecheckerboard="0"
     inkscape:deskcolor="#d1d1d1"
     inkscape:zoom="6.0513456"
     inkscape:cx="-9.9977764"
     inkscape:cy="53.954942"
     inkscape:window-width="1920"
     inkscape:window-height="1009"
     inkscape:window-x="1854"
     inkscape:window-y="-8"
     inkscape:window-maximized="1"
     inkscape:current-layer="svg10" />
  <path
     d="M0 0h30v380H0z"
     fill="#ababab"
     id="path1" />
  <path
     d="M.3.3h29.4v379.4H0z"
     fill="#e6e6e6"
     id="path2"
     style="fill:#2b2b2c;fill-opacity:1" />
  <path
     d="M.3 16h29.4v16H0z"
     fill="#c91847"
     id="path3"
     style="fill:#ededed;fill-opacity:1" />
  <path
     d="M0 346h29.25v20H0z"
     fill="#1994b3"
     id="path6" />
  <g
     font-family="Envy Code R"
     letter-spacing="0"
     word-spacing="0"
     id="g10"
     style="fill:#2b2b2c;fill-opacity:1">
    <g
       aria-label="OUTDAISY"
       style="-inkscape-font-specification:'Envy Code R';fill:#2b2b2c;fill-opacity:1"
       fill="#fff"
       font-size="8"
       id="g9">
      <path
         d="M 4.617,350.445 H 6.16 c 0.2133333,0 0.414,0.0403 0.602,0.121 0.1873333,0.0813 0.35,0.192 0.488,0.332 0.14,0.138 0.2506667,0.301 0.332,0.489 0.080667,0.18733 0.121,0.38767 0.121,0.601 v 2.469 c 0,0.21333 -0.040333,0.414 -0.121,0.602 -0.080667,0.18667 -0.1913333,0.35067 -0.332,0.492 -0.138,0.138 -0.3006667,0.24733 -0.488,0.328 C 6.574,355.95967 6.3733333,356 6.16,356 H 4.617 Z m 1.543,4.938 c 0.128,0 0.248,-0.0233 0.36,-0.07 0.112,-0.05 0.2096667,-0.11667 0.293,-0.2 0.085333,-0.086 0.1516667,-0.185 0.199,-0.297 0.049333,-0.112 0.074,-0.23167 0.074,-0.359 v -2.469 c 0,-0.12733 -0.024667,-0.24733 -0.074,-0.36 -0.046667,-0.11133 -0.1133333,-0.20867 -0.2,-0.292 -0.083333,-0.086 -0.1806667,-0.15267 -0.292,-0.2 -0.112,-0.0487 -0.232,-0.073 -0.36,-0.073 H 5.234 v 4.32 z m 2.754,-3.395 c 0,-0.21333 0.040333,-0.41367 0.121,-0.601 0.080667,-0.188 0.19,-0.351 0.328,-0.489 0.1406667,-0.14 0.3046667,-0.25067 0.492,-0.332 0.188,-0.08 0.388667,-0.12 0.602,-0.12 0.213333,0 0.414,0.04 0.602,0.12 0.186667,0.0813 0.349333,0.192 0.488,0.332 0.14,0.138 0.250667,0.301 0.332,0.489 0.08067,0.18733 0.121,0.38767 0.121,0.601 V 356 h -0.617 v -2.469 H 9.53 V 356 H 8.913 Z m 2.469,0.926 v -0.926 c 0,-0.12733 -0.02467,-0.24733 -0.074,-0.36 -0.04667,-0.11133 -0.113333,-0.20867 -0.2,-0.292 -0.08333,-0.086 -0.181,-0.15267 -0.293,-0.2 -0.112,-0.0487 -0.231667,-0.073 -0.359,-0.073 -0.127333,0 -0.247333,0.0247 -0.36,0.074 -0.1113333,0.0467 -0.21,0.113 -0.296,0.199 -0.083333,0.0833 -0.15,0.181 -0.2,0.293 -0.046667,0.112 -0.07,0.232 -0.07,0.36 v 0.925 z m 1.827,2.469 h 1.235 v -4.32 h -1.234 v -0.618 h 3.086 v 0.618 h -1.235 v 4.32 h 1.235 V 356 H 13.21 Z m 4.915,-3.395 c 0,0.128 0.02333,0.248 0.07,0.36 0.05,0.112 0.116667,0.211 0.2,0.297 0.08533,0.0833 0.184,0.14967 0.296,0.199 0.112,0.0467 0.232,0.07 0.36,0.07 0.213333,0 0.413667,0.0403 0.601,0.121 0.188,0.0807 0.351,0.19133 0.489,0.332 0.14,0.138 0.250667,0.30067 0.332,0.488 0.08,0.188 0.12,0.38867 0.12,0.602 0,0.21333 -0.04,0.414 -0.12,0.602 -0.08067,0.18667 -0.191333,0.35067 -0.332,0.492 -0.138,0.138 -0.301,0.24733 -0.489,0.328 -0.186667,0.0807 -0.387,0.121 -0.601,0.121 h -1.543 v -0.617 h 1.543 c 0.127333,0 0.247333,-0.0233 0.36,-0.07 0.111333,-0.05 0.208667,-0.11667 0.292,-0.2 0.086,-0.086 0.152667,-0.185 0.2,-0.297 0.04933,-0.112 0.074,-0.23167 0.074,-0.359 0,-0.12733 -0.025,-0.24733 -0.075,-0.36 -0.04667,-0.11133 -0.113,-0.20867 -0.199,-0.292 -0.08333,-0.0867 -0.181,-0.15333 -0.293,-0.2 -0.112,-0.0493 -0.232,-0.074 -0.36,-0.074 -0.213333,0 -0.413333,-0.04 -0.6,-0.12 -0.188,-0.0813 -0.352333,-0.191 -0.493,-0.329 -0.138,-0.14 -0.247333,-0.304 -0.328,-0.492 -0.08067,-0.18733 -0.121,-0.388 -0.121,-0.602 0,-0.21333 0.04,-0.41367 0.12,-0.601 0.08133,-0.188 0.191,-0.351 0.329,-0.489 0.140667,-0.14 0.304667,-0.25067 0.492,-0.332 0.187333,-0.08 0.388,-0.12 0.602,-0.12 h 1.543 v 0.617 H 19.05 c -0.128,0 -0.248,0.0247 -0.36,0.074 -0.112,0.0467 -0.210667,0.113 -0.296,0.199 -0.08333,0.0833 -0.15,0.181 -0.2,0.293 -0.04667,0.112 -0.07,0.232 -0.07,0.36 z m 4.915,2.168 -1.235,-3.71 h 0.617 l 0.926,2.777 0.925,-2.778 h 0.618 l -1.235,3.703 V 356 h -0.617 z"
         id="path9"
         sodipodi:nodetypes="cscccsscccsccscccsscccsccsccccscccsccccccccscccscscscccccccccccccccccccscccscccsccscscscccscccscccsccsccccccccccccccc"
         style="fill:#2b2b2c;fill-opacity:1" />
    </g>
  </g>
  <path
     d="M 5.5234319,54.5818 V 325.4182"
     style="fill:none;stroke:#fefefe;stroke-width:0.7;stroke-dasharray:none;stroke-opacity:1"
     id="path7-0" />
  <path
     d="M 24.324846,54.581799 V 325.4182"
     style="fill:none;stroke:#ffffff;stroke-width:0.7;stroke-dasharray:none;stroke-opacity:1"
     id="path7-0-5" />
</svg>
